<svg version="1.1"  xmlns="http://www.w3.org/2000/svg" xmlns:xlink="http://www.w3.org/1999/xlink" x="0px" y="0px" viewBox="0 0 304.13 101.6" style="enable-background:new 0 0 304.13 101.6;" xml:space="preserve"> <g> <path class="st0" style="fill: #00B6F1" d="M295.53,66.12c3.16,0,5.73-2.57,5.73-5.73c0-3.16-2.57-5.73-5.73-5.73c-3.16,0-5.73,2.57-5.73,5.73
 C289.8,63.55,292.37,66.12,295.53,66.12z M295.53,56.06c2.4,0,4.33,1.93,4.33,4.33c0,2.4-1.93,4.33-4.33,4.33
 c-2.4,0-4.33-1.93-4.33-4.33C291.2,57.99,293.13,56.06,295.53,56.06z M293.93,63.6c0.54,0,0.7-0.31,0.7-0.75v-1.84h0.47l0.98,1.84
 c0.2,0.37,0.36,0.75,0.86,0.75c0.52,0,0.73-0.2,0.73-0.55c0-0.09-0.03-0.2-0.09-0.33l-1.11-1.81c1-0.04,1.56-0.61,1.56-1.71
 c0-1.45-1.06-1.82-2.32-1.82h-1.76c-0.59,0-0.72,0.3-0.72,0.65v4.81C293.22,63.35,293.38,63.6,293.93,63.6z M294.63,58.51h1.17
 c0.52,0,0.83,0.14,0.83,0.7c0,0.56-0.31,0.69-0.83,0.69h-1.17V58.51z M27.65,22.56c-3.96,0-7.84,1.35-10.85,3.96V10.99
 c0-3.8-2.38-6.34-5.7-6.34c-3.33,0-5.7,2.53-5.7,6.34v48.8c0,3.8,2.38,6.34,5.7,6.34c3.17,0,4.99-1.74,5.7-4.75
 c2.14,3.48,6.57,5.23,10.46,5.23c11.49,0,18.77-10.69,18.77-21.47C46.03,34.04,39.93,22.56,27.65,22.56z M25.75,56.14
 c-6.26,0-8.95-6.34-8.95-11.88c0-5.55,2.85-11.25,8.95-11.25c5.94,0,8.87,6.26,8.87,11.64C34.62,49.96,31.69,56.14,25.75,56.14z
 M54.03,4.65c-3.33,0-5.7,2.53-5.7,6.34v48.8c0,3.8,2.38,6.34,5.7,6.34c3.33,0,5.7-2.54,5.7-6.34v-48.8
 C59.73,7.19,57.36,4.65,54.03,4.65z M94.74,23.03c-3.33,0-5.7,2.53-5.7,6.34v20.36c0,4.75-3.56,7.37-7.37,7.37
 s-7.37-2.61-7.37-7.37V29.37c0-3.8-2.38-6.34-5.7-6.34c-3.33,0-5.7,2.53-5.7,6.34v20.6c0,10.14,6.73,16.63,18.77,16.63
 c12.04,0,18.77-6.5,18.77-16.63v-20.6C100.44,25.56,98.07,23.03,94.74,23.03z M143.65,43.31c0-9.51-8.16-20.75-20.52-20.75
 c-12.04,0-20.44,10.53-20.44,22.1c0,12.6,8.55,21.94,21.39,21.94c8.48,0,18.61-4.75,18.61-9.66c0-2.46-2.22-4.91-4.67-4.91
 c-3.01,0-7.05,4.59-12.91,4.59c-5.31,0-9.98-2.61-10.77-8.24h24.32C142.15,48.38,143.65,46.72,143.65,43.31z M114.11,40.77
 c0.55-4.83,3.96-8.71,9.03-8.71c5.31,0,8.48,3.72,9.11,8.71H114.11z M149.51,59.78c0,3.8,2.38,6.34,5.7,6.34
 c3.33,0,5.7-2.54,5.7-6.34v-26.3h3.56c3.33,0,5.78-1.43,5.78-4.99c0-3.64-2.38-4.99-5.78-4.99h-3.56v-4.67c0-4.2,1.9-4.2,3.8-4.2
 c3.17,0,4.67-1.5,4.67-4.83c0-3.96-3.88-5.15-7.92-5.15c-6.97,0-11.96,4.59-11.96,12.99v5.86h-2.54c-2.85,0-4.99,2.14-4.99,4.99
 c0,3.09,1.9,4.99,4.99,4.99h2.54V59.78z M186.74,66.6c4.36,0,7.92-1.82,10.85-5.31c0.79,3.01,2.14,4.83,5.47,4.83
 c5.46,0,5.46-4.52,5.46-7.45v-28.2c0-2.93,0-7.44-5.46-7.44c-2.77,0-5.15,1.98-5.47,4.75c-2.53-3.57-6.65-5.23-10.85-5.23
 c-10.46,0-18.85,9.58-18.85,22.1C167.89,57.49,176.05,66.6,186.74,66.6z M188.33,33.01c6.02,0,8.79,6.18,8.79,11.64
 c0,5.47-2.85,11.49-8.79,11.49c-6.18,0-9.03-6.02-9.03-11.49C179.3,39.19,182.07,33.01,188.33,33.01z M232.21,66.6
 c4.12,0,13.94-1.98,13.94-7.84c0-2.69-2.22-4.99-4.91-4.99c-1.35,0-5.62,2.38-8.48,2.38c-6.18,0-9.58-5.86-9.58-11.49
 c0-5.86,3.09-11.64,9.58-11.64c3.64,0,6.18,2.22,9.03,2.22c2.69,0,4.36-3.09,4.36-5.47c0-5.55-9.43-7.21-13.94-7.21
 c-12.04,0-20.44,10.53-20.44,22.1C211.77,56.54,219.93,66.6,232.21,66.6z M268.25,66.6c8.47,0,18.61-4.75,18.61-9.66
 c0-2.46-2.22-4.91-4.67-4.91c-3.01,0-7.05,4.59-12.91,4.59c-5.31,0-9.98-2.61-10.77-8.24h24.32c3.49,0,4.99-1.66,4.99-5.07
 c0-9.51-8.16-20.75-20.52-20.75c-12.04,0-20.44,10.53-20.44,22.1C246.86,57.25,255.42,66.6,268.25,66.6z M267.3,32.06
 c5.31,0,8.48,3.72,9.11,8.71h-18.14C258.82,35.94,262.23,32.06,267.3,32.06z"></path> <g> <g> <path class="st1" style="fill: #010101" d="M41.11,84.2c-3.42,0-6.2,2.78-6.2,6.21c0,3.42,2.78,6.21,6.2,6.21c3.42,0,6.2-2.79,6.2-6.21
 C47.32,86.99,44.53,84.2,41.11,84.2 M41.11,95.39c-2.75,0-4.99-2.24-4.99-4.98c0-2.75,2.24-4.98,4.99-4.98
 c2.75,0,4.98,2.24,4.98,4.98C46.1,93.16,43.86,95.39,41.11,95.39"></path> <path class="st1" style="fill: #010101" d="M94.61,90.49c-0.33-0.17-2.36-1.22-2.65-1.37c-1.06-0.54-1.44-1.02-1.44-1.84c0-1.13,0.93-1.86,2.36-1.86
 c0.84,0,1.66,0.37,2.14,0.64c0.09,0.05,0.19,0.07,0.3,0.07c0.34,0,0.61-0.27,0.61-0.61c0-0.23-0.12-0.42-0.31-0.53
 c-0.6-0.34-1.63-0.8-2.74-0.8c-2.11,0-3.59,1.27-3.59,3.08c0,1.63,1.07,2.4,2.12,2.93c0.29,0.15,2.34,1.21,2.65,1.37
 c0.81,0.42,1.26,1.06,1.26,1.79c0,0.98-0.83,2.02-2.37,2.02c-1.49,0-2.66-1-2.98-1.31l-0.09-0.09l-0.9,0.82l0.11,0.11
 c0.4,0.4,1.87,1.7,3.87,1.7c2.24,0,3.59-1.65,3.59-3.24C96.55,92.18,95.84,91.13,94.61,90.49"></path> <path class="st1" style="fill: #010101" d="M28.39,85.43c1.33,0,2.58,0.52,3.52,1.46c0.22,0.22,0.64,0.22,0.86,0c0.12-0.11,0.18-0.27,0.18-0.43
 c0-0.16-0.06-0.32-0.18-0.43l-0.07-0.08c-1.16-1.12-2.7-1.74-4.31-1.74c-3.42,0-6.2,2.78-6.2,6.21c0,3.42,2.78,6.21,6.2,6.21
 c1.81,0,3.43-0.78,4.57-2.01l-0.86-0.86c-0.91,1.01-2.23,1.65-3.7,1.65c-2.75,0-4.98-2.24-4.98-4.98
 C23.4,87.66,25.64,85.43,28.39,85.43"></path> <path class="st1" style="fill: #010101" d="M70.45,85.43c1.33,0,2.58,0.52,3.52,1.46c0.22,0.22,0.64,0.22,0.86,0c0.12-0.11,0.18-0.27,0.18-0.43
 c0-0.16-0.06-0.32-0.18-0.43l-0.07-0.08c-1.16-1.12-2.69-1.74-4.31-1.74c-3.42,0-6.21,2.78-6.21,6.21c0,3.42,2.78,6.21,6.21,6.21
 c1.8,0,3.43-0.78,4.57-2.01l-0.86-0.86c-0.91,1.01-2.23,1.65-3.7,1.65c-2.75,0-4.98-2.24-4.98-4.98
 C65.47,87.66,67.7,85.43,70.45,85.43"></path> <path class="st1" style="fill: #010101" d="M59.94,84.2c-0.23,0-0.41,0.15-0.51,0.34c-0.1,0.19-3.65,8.97-3.65,8.97s-3.55-8.78-3.65-8.97
 c-0.1-0.19-0.28-0.34-0.51-0.34c-0.27,0-0.47,0.2-0.54,0.44c-0.07,0.25-2.07,11.31-2.07,11.31C49,95.99,49,96.03,49,96.07
 c0,0.3,0.25,0.55,0.55,0.55c0.27,0,0.49-0.19,0.54-0.45l1.74-9.46c0,0,3.35,8.27,3.45,8.47c0.1,0.2,0.28,0.35,0.51,0.35
 c0.23,0,0.41-0.15,0.51-0.35c0.1-0.2,3.45-8.47,3.45-8.47l1.8,9.83h1.12c0,0-2.11-11.65-2.18-11.9
 C60.41,84.4,60.21,84.2,59.94,84.2"></path> <path class="st1" style="fill: #010101" d="M82,84.2c-0.23,0-0.41,0.15-0.51,0.35c-0.1,0.2-4.6,11.3-4.6,11.3c-0.03,0.07-0.04,0.14-0.04,0.21
 c0,0.3,0.25,0.55,0.55,0.55c0.23,0,0.43-0.14,0.51-0.35l1.75-4.29h4.69l1.86,4.57h1.19c0,0-4.78-11.8-4.88-12
 C82.42,84.36,82.24,84.2,82,84.2 M80.16,90.75L82,86.22l1.85,4.54H80.16z"></path> <path class="st1" style="fill: #010101" d="M106.16,84.88c0-0.34-0.27-0.61-0.61-0.61h-6.91c-0.34,0-0.61,0.27-0.61,0.61c0,0.34,0.27,0.61,0.61,0.61
 h2.9v11.06h1.12V85.49h2.89C105.89,85.49,106.16,85.22,106.16,84.88"></path> <path class="st1" style="fill: #010101" d="M149.76,84.2c-0.61,0-0.99,0.43-0.99,0.96v11.38h1.98V85.16C150.74,84.63,150.37,84.2,149.76,84.2"></path> <path class="st1" style="fill: #010101" d="M127.31,91.67l0-6.5c0-0.53-0.39-0.96-0.99-0.96c-0.61,0-0.99,0.43-0.99,0.96v6.44c0,2.76,1.94,5,5.04,5
 c3.09,0,5.04-2.24,5.04-5l0-7.34h-1.98v7.4c0,1.63-1.08,3.08-3.06,3.08C128.4,94.75,127.31,93.3,127.31,91.67"></path> <path class="st1" style="fill: #010101" d="M175.23,86.2c0.65,0,1.05-0.42,1.05-0.97c0-0.55-0.4-0.97-1.05-0.97h-6.06c-0.56,0-0.96,0.4-0.96,0.96v10.37
 c0,0.54,0.4,0.95,0.96,0.95h7.04v-1.93h-6.02v-3.56h4.54c0.69,0,1.07-0.41,1.07-0.97c0-0.56-0.38-0.96-1.07-0.96h-4.54V86.2
 H175.23z"></path> <path class="st1" style="fill: #010101" d="M121.01,89.9c0.33-0.21,1.24-0.93,1.24-2.52c0-1.88-1.35-3.11-3.41-3.11h-4.24c-0.57,0-0.96,0.39-0.96,0.96
 v11.32h5.45c2.21,0,3.73-1.61,3.73-3.66C122.82,90.7,121.36,90.06,121.01,89.9 M115.62,86.19h2.97c1.12,0,1.66,0.67,1.66,1.49
 c0,0.82-0.59,1.49-1.66,1.49h-2.97V86.19z M118.72,94.65h-3.1v-3.67l3.1,0c1.42,0,2.1,0.83,2.1,1.83
 C120.82,93.82,120.1,94.65,118.72,94.65"></path> <path class="st1" style="fill: #010101" d="M155.64,84.2c-0.6,0-0.99,0.43-0.99,0.95v10.5c0,0.53,0.47,0.95,0.99,0.95c0.52,0,0.98-0.42,0.98-0.95v-7.58
 c0,0,4.81,6.16,6.09,7.78c0.32,0.41,0.54,0.75,1.12,0.75c0.57,0,0.96-0.42,0.96-0.95V84.27h-1.98v8.5c0,0-5.37-6.89-6.12-7.84
 C156.37,84.49,156.1,84.2,155.64,84.2"></path> <path class="st1" style="fill: #010101" d="M137.71,94.79c0.25,0.33,1.41,1.83,3.96,1.83c2.5,0,4.21-1.44,4.21-3.45c0-1.32-0.52-2.38-2.47-3.32
 c-0.52-0.25-1.99-0.96-1.99-0.96c-0.78-0.38-1.13-0.83-1.13-1.44c0-0.65,0.53-1.34,1.82-1.34c0.73,0,1.3,0.24,1.61,0.37
 c0.15,0.07,0.5,0.24,0.84,0.24c0.43,0,0.91-0.31,0.91-0.94c0-0.53-0.38-0.81-0.7-0.97c-0.53-0.25-1.35-0.61-2.74-0.61
 c-2.19,0-3.81,1.39-3.81,3.3c0,1.76,1.18,2.63,2.61,3.32c0.27,0.13,1.33,0.64,1.61,0.78c0.9,0.44,1.37,0.85,1.37,1.61
 c0,0.82-0.76,1.5-1.92,1.5c-1.66,0-2.54-1.09-2.71-1.27L137.71,94.79z"></path> <path class="st1" style="fill: #010101" d="M178.23,94.79c0.25,0.33,1.42,1.83,3.97,1.83c2.5,0,4.2-1.44,4.2-3.45c0-1.32-0.51-2.38-2.48-3.32
 c-0.52-0.25-1.99-0.96-1.99-0.96c-0.79-0.38-1.13-0.83-1.13-1.44c0-0.65,0.53-1.34,1.83-1.34c0.73,0,1.3,0.24,1.6,0.37
 c0.15,0.07,0.5,0.24,0.84,0.24c0.43,0,0.91-0.31,0.91-0.94c0-0.53-0.38-0.81-0.71-0.97c-0.53-0.25-1.36-0.61-2.74-0.61
 c-2.18,0-3.81,1.39-3.81,3.3c0,1.76,1.18,2.63,2.61,3.32c0.27,0.13,1.33,0.64,1.63,0.78c0.89,0.44,1.37,0.85,1.37,1.61
 c0,0.82-0.77,1.5-1.92,1.5c-1.67,0-2.54-1.09-2.71-1.27L178.23,94.79z"></path> <path class="st1" style="fill: #010101" d="M188.28,94.79c0.25,0.33,1.4,1.83,3.96,1.83c2.5,0,4.21-1.44,4.21-3.45c0-1.32-0.52-2.38-2.47-3.32
 c-0.53-0.25-2.01-0.96-2.01-0.96c-0.77-0.38-1.12-0.83-1.12-1.44c0-0.65,0.53-1.34,1.82-1.34c0.74,0,1.31,0.24,1.62,0.37
 c0.15,0.07,0.49,0.24,0.83,0.24c0.43,0,0.91-0.31,0.91-0.94c0-0.53-0.38-0.81-0.71-0.97c-0.53-0.25-1.35-0.61-2.74-0.61
 c-2.18,0-3.8,1.39-3.8,3.3c0,1.76,1.17,2.63,2.61,3.32c0.27,0.13,1.32,0.64,1.61,0.78c0.9,0.44,1.38,0.85,1.38,1.61
 c0,0.82-0.76,1.5-1.93,1.5c-1.66,0-2.55-1.09-2.71-1.27L188.28,94.79z"></path> </g> <g> <path class="st1" style="fill: #010101" d="M209.66,84.42c1.74,0,2.99,0.6,4.16,1.6c0.14,0.14,0.16,0.34,0.02,0.48l-0.46,0.46
 c-0.14,0.17-0.28,0.16-0.45-0.02c-0.89-0.77-2.11-1.29-3.28-1.29c-2.71,0-4.79,2.29-4.79,4.95c0,2.65,2.08,4.93,4.79,4.93
 c1.5,0,2.37-0.6,3.28-1.29c0.17-0.14,0.31-0.12,0.41-0.05l0.52,0.46c0.14,0.1,0.1,0.34-0.02,0.46c-1.17,1.13-2.65,1.67-4.17,1.67
 c-3.44,0-6.2-2.73-6.2-6.17S206.23,84.42,209.66,84.42z"></path> <path class="st1" style="fill: #010101" d="M221.71,84.42c3.44,0,6.19,2.77,6.19,6.2s-2.75,6.17-6.19,6.17c-3.44,0-6.17-2.73-6.17-6.17
 S218.27,84.42,221.71,84.42z M221.71,95.59c2.73,0,4.98-2.23,4.98-4.96c0-2.73-2.25-5-4.98-5c-2.73,0-4.96,2.27-4.96,5
 C216.74,93.35,218.98,95.59,221.71,95.59z"></path> <path class="st1" style="fill: #010101" d="M231.47,84.66c0.04-0.14,0.17-0.24,0.31-0.24h0.28c0.12,0,0.26,0.09,0.29,0.19l3.4,9.47
 c0.03,0,0.05,0,0.09,0l3.35-9.47c0.03-0.1,0.17-0.19,0.29-0.19h0.28c0.14,0,0.27,0.1,0.31,0.24l2.22,11.55
 c0.05,0.24-0.05,0.41-0.31,0.41h-0.69c-0.14,0-0.27-0.12-0.31-0.24l-1.53-8.85c-0.02,0-0.05,0-0.07,0l-3.16,9.07
 c-0.03,0.1-0.19,0.19-0.29,0.19h-0.31c-0.1,0-0.26-0.09-0.29-0.19l-3.2-9.07c-0.02,0-0.05,0-0.07,0l-1.5,8.85
 c-0.02,0.12-0.17,0.24-0.31,0.24h-0.69c-0.26,0-0.36-0.17-0.31-0.41L231.47,84.66z"></path> <path class="st1" style="fill: #010101" d="M244.86,84.92c0-0.17,0.14-0.33,0.33-0.33h3.8c2.11,0,3.85,1.72,3.85,3.8c0,2.13-1.74,3.87-3.83,3.87h-2.83
 v4.04c0,0.17-0.16,0.33-0.33,0.33h-0.65c-0.19,0-0.33-0.15-0.33-0.33V84.92z M248.89,90.98c1.41,0,2.61-1.15,2.61-2.63
 c0-1.39-1.2-2.46-2.61-2.46h-2.73v5.08H248.89z"></path> <path class="st1" style="fill: #010101" d="M252.69,96.17l5.22-11.56c0.05-0.1,0.14-0.19,0.29-0.19h0.17c0.15,0,0.24,0.09,0.29,0.19l5.19,11.56
 c0.1,0.22-0.04,0.45-0.29,0.45h-0.69c-0.16,0-0.26-0.1-0.29-0.19l-1.27-2.83h-6.1l-1.25,2.83c-0.04,0.09-0.14,0.19-0.29,0.19
 h-0.69C252.73,96.62,252.59,96.39,252.69,96.17z M260.85,92.53c-0.84-1.87-1.67-3.76-2.51-5.64h-0.14l-2.51,5.64H260.85z"></path> <path class="st1" style="fill: #010101" d="M265.84,84.73c0-0.17,0.15-0.31,0.33-0.31h0.43l7.75,9.66c0.02,0,0.02,0,0.04,0v-9.16
 c0-0.17,0.14-0.33,0.33-0.33h0.6c0.17,0,0.33,0.16,0.33,0.33v11.56c0,0.17-0.15,0.31-0.33,0.31h-0.31l-7.89-9.84h-0.02v9.35
 c0,0.17-0.14,0.33-0.33,0.33h-0.6c-0.17,0-0.33-0.15-0.33-0.33V84.73z"></path> <path class="st1" style="fill: #010101" d="M281.66,90.83l-4.14-5.74c-0.14-0.22,0-0.5,0.28-0.5h0.81c0.12,0,0.22,0.09,0.27,0.16l3.47,4.79l3.47-4.79
 c0.05-0.07,0.15-0.16,0.27-0.16h0.81c0.28,0,0.41,0.28,0.28,0.5l-4.19,5.72v5.48c0,0.17-0.15,0.33-0.33,0.33h-0.67
 c-0.19,0-0.33-0.15-0.33-0.33V90.83z"></path> </g> <path class="st1" style="fill: #010101" d="M10.37,84.2c-0.23,0-0.41,0.15-0.51,0.35c-0.1,0.2-4.6,11.3-4.6,11.3c-0.03,0.07-0.04,0.14-0.04,0.21
 c0,0.3,0.25,0.55,0.55,0.55c0.23,0,0.43-0.14,0.51-0.35l1.75-4.29h4.69l1.86,4.57h1.19c0,0-4.78-11.8-4.88-12
 C10.79,84.36,10.61,84.2,10.37,84.2 M8.53,90.75l1.84-4.54l1.85,4.54H8.53z"></path> </g> </g> </svg>